TITLE ""
FILE "DISC1Track33.mp3" MP3
  TRACK 01 AUDIO
    TITLE "DISC1Track33_01"
    INDEX 01 00:00:00
  TRACK 02 AUDIO
    TITLE "DISC1Track33_02"
    INDEX 01 00:01:37
  TRACK 03 AUDIO
    TITLE "DISC1Track33_03"
    INDEX 01 00:01:55
  TRACK 04 AUDIO
    TITLE "DISC1Track33_04"
    INDEX 01 00:05:31
  TRACK 05 AUDIO
    TITLE "DISC1Track33_05"
    INDEX 01 00:09:39
  TRACK 06 AUDIO
    TITLE "DISC1Track33_06"
    INDEX 01 00:13:23
  TRACK 07 AUDIO
    TITLE "DISC1Track33_07"
    INDEX 01 00:13:33
  TRACK 08 AUDIO
    TITLE "DISC1Track33_08"
    INDEX 01 00:18:67
  TRACK 09 AUDIO
    TITLE "DISC1Track33_09"
    INDEX 01 00:24:38
  TRACK 10 AUDIO
    TITLE "DISC1Track33_10"
    INDEX 01 00:29:55
  TRACK 11 AUDIO
    TITLE "DISC1Track33_11"
    INDEX 01 00:29:73
  TRACK 12 AUDIO
    TITLE "DISC1Track33_12"
    INDEX 01 00:33:29
  TRACK 13 AUDIO
    TITLE "DISC1Track33_13"
    INDEX 01 00:36:20
  TRACK 14 AUDIO
    TITLE "DISC1Track33_14"
    INDEX 01 00:38:54
  TRACK 15 AUDIO
    TITLE "DISC1Track33_15"
    INDEX 01 00:38:70
  TRACK 16 AUDIO
    TITLE "DISC1Track33_16"
    INDEX 01 00:41:74
  TRACK 17 AUDIO
    TITLE "DISC1Track33_17"
    INDEX 01 00:45:27
  TRACK 18 AUDIO
    TITLE "DISC1Track33_18"
    INDEX 01 00:48:25
  TRACK 19 AUDIO
    TITLE "DISC1Track33_19"
    INDEX 01 00:48:43
  TRACK 20 AUDIO
    TITLE "DISC1Track33_20"
    INDEX 01 00:51:31
  TRACK 21 AUDIO
    TITLE "DISC1Track33_21"
    INDEX 01 00:54:57
  TRACK 22 AUDIO
    TITLE "DISC1Track33_22"
    INDEX 01 00:57:57
  TRACK 23 AUDIO
    TITLE "DISC1Track33_23"
    INDEX 01 00:57:67
  TRACK 24 AUDIO
    TITLE "DISC1Track33_24"
    INDEX 01 01:01:14
  TRACK 25 AUDIO
    TITLE "DISC1Track33_25"
    INDEX 01 01:04:04
  TRACK 26 AUDIO
    TITLE "DISC1Track33_26"
    INDEX 01 01:06:46
  TRACK 27 AUDIO
    TITLE "DISC1Track33_27"
    INDEX 01 01:06:62
  TRACK 28 AUDIO
    TITLE "DISC1Track33_28"
    INDEX 01 01:10:05
  TRACK 29 AUDIO
    TITLE "DISC1Track33_29"
    INDEX 01 01:13:45
  TRACK 30 AUDIO
    TITLE "DISC1Track33_30"
    INDEX 01 01:16:49
  TRACK 31 AUDIO
    TITLE "DISC1Track33_31"
    INDEX 01 01:16:64
  TRACK 32 AUDIO
    TITLE "DISC1Track33_32"
    INDEX 01 01:20:19
  TRACK 33 AUDIO
    TITLE "DISC1Track33_33"
    INDEX 01 01:23:33
  TRACK 34 AUDIO
    TITLE "DISC1Track33_34"
    INDEX 01 01:26:26
  TRACK 35 AUDIO
    TITLE "DISC1Track33_35"
    INDEX 01 01:26:41
  TRACK 36 AUDIO
    TITLE "DISC1Track33_36"
    INDEX 01 01:30:47
  TRACK 37 AUDIO
    TITLE "DISC1Track33_37"
    INDEX 01 01:34:13
  TRACK 38 AUDIO
    TITLE "DISC1Track33_38"
    INDEX 01 01:37:33
  TRACK 39 AUDIO
    TITLE "DISC1Track33_39"
    INDEX 01 01:37:49
  TRACK 40 AUDIO
    TITLE "DISC1Track33_40"
    INDEX 01 01:40:43
  TRACK 41 AUDIO
    TITLE "DISC1Track33_41"
    INDEX 01 01:43:22
  TRACK 42 AUDIO
    TITLE "DISC1Track33_42"
    INDEX 01 01:45:45
  TRACK 43 AUDIO
    TITLE "DISC1Track33_43"
    INDEX 01 01:45:62
  TRACK 44 AUDIO
    TITLE "DISC1Track33_44"
    INDEX 01 01:47:51
  TRACK 45 AUDIO
    TITLE "DISC1Track33_45"
    INDEX 01 01:49:52
  TRACK 46 AUDIO
    TITLE "DISC1Track33_46"
    INDEX 01 01:51:33
